<?xml version="1.0" encoding="utf-8"?>
<!-- Generator: Adobe Illustrator 22.0.0, SVG Export Plug-In . SVG Version: 6.00 Build 0)  -->
<svg version="1.1" id="Laag_1" xmlns:sketch="http://www.bohemiancoding.com/sketch/ns"
	 xmlns="http://www.w3.org/2000/svg" xmlns:xlink="http://www.w3.org/1999/xlink" x="0px" y="0px" viewBox="0 0 72.3 74"
	 style="enable-background:new 0 0 72.3 74;" xml:space="preserve">
<style type="text/css">
	.st0{fill:none;stroke:#003082;stroke-width:0.75;stroke-miterlimit:10;}
</style>
<title></title>
<desc></desc>
<g id="Page-1">
	<g id="icon-30-book">
		<path id="book" class="st0" d="M38.3,21.5h16v38h-28v-38H38.3L38.3,21.5z M56.3,61.5h-34c-3.4,0-6-2.6-6-6v-39c0-2.8,2.2-5,5-5h35
			v2h-1c-1.6,0-3,1.4-3,3s1.4,3,3,3h1V61.5L56.3,61.5z M24.3,59.5h-2c-2.2,0-4-1.8-4-4v-35c0.8,0.6,1.8,1,3,1h3V59.5L24.3,59.5z
			 M21.3,13.5c-1.6,0-3,1.4-3,3s1.4,3,3,3h30c0,0-1-1.6-1-3s1-3,1-3H21.3L21.3,13.5z"/>
	</g>
</g>
</svg>
